<?xml-stylesheet type="text/css" href="../css/main.css"?>

<svg width="1445" height="1010" viewBox="0 0 1445 1010" fill="none" xmlns="http://www.w3.org/2000/svg">
    <path
        d="M320.001 395.994C320.001 449.013 277.02 491.994 224.001 491.994C170.981 491.994 128 449.013 128 395.994C128 342.975 170.981 299.994 224.001 299.994C277.02 299.994 320.001 342.975 320.001 395.994Z"
        fill="#EDC140" stroke="black" stroke-width="16" />
    <path
        d="M120 257.994C120 288.922 94.928 313.994 64 313.994C33.072 313.994 7.99999 288.922 7.99999 257.994C7.99999 227.066 33.072 201.994 64 201.994C94.928 201.994 120 227.066 120 257.994Z"
        fill="#0DA3C4" stroke="black" stroke-width="16" />
    <path
        d="M786 958.986C786 982.735 766.748 1001.99 743 1001.99C719.252 1001.99 700 982.735 700 958.986C700 935.238 719.252 915.986 743 915.986C766.748 915.986 786 935.238 786 958.986Z"
        fill="#0DA3C4" stroke="black" stroke-width="16" />
    <path
        d="M249.581 491.856C256.861 530.81 231.185 568.29 192.231 575.57C153.277 582.85 115.797 557.174 108.516 518.22C101.236 479.266 126.912 441.786 165.866 434.505C204.82 427.225 242.301 452.902 249.581 491.856Z"
        fill="#8DB958" stroke="black" stroke-width="16" />
    <path
        d="M491.552 782.721C499.964 827.729 470.297 871.033 425.289 879.445C380.282 887.857 336.977 858.19 328.565 813.182C320.154 768.175 349.82 724.87 394.828 716.458C439.836 708.047 483.14 737.713 491.552 782.721Z"
        fill="#8DB958" stroke="black" stroke-width="16" />
    <path
        d="M367.043 819.911C379.49 886.509 335.592 950.587 268.994 963.034C202.396 975.481 138.318 931.583 125.871 864.985C113.424 798.387 157.322 734.309 223.92 721.862C290.518 709.415 354.596 753.313 367.043 819.911Z"
        fill="#CC344F" stroke="black" stroke-width="16" />
    <path
        d="M508.001 574.992C508.001 607.577 481.585 633.992 449 633.992C416.416 633.992 390 607.577 390 574.992C390 542.407 416.416 515.992 449 515.992C481.585 515.992 508.001 542.407 508.001 574.992Z"
        fill="#E48047" stroke="black" stroke-width="16" />
    <path
        d="M1034.69 724.486C1044.1 774.833 1010.92 823.275 960.57 832.684C910.223 842.094 861.781 808.908 852.371 758.561C842.962 708.214 876.148 659.772 926.495 650.362C976.841 640.953 1025.28 674.139 1034.69 724.486Z"
        fill="#D4324F" stroke="black" stroke-width="16" />
    <path
        d="M682.027 205.833C688.479 240.354 665.724 273.569 631.203 280.021C596.682 286.473 563.467 263.718 557.015 229.197C550.563 194.676 573.318 161.461 607.839 155.009C642.36 148.558 675.575 171.312 682.027 205.833Z"
        fill="#8DB958" stroke="black" stroke-width="16" />
    <path
        d="M470.368 197.527C475.137 223.043 458.318 247.593 432.803 252.362C407.287 257.13 382.737 240.312 377.968 214.796C373.199 189.281 390.018 164.73 415.534 159.962C441.049 155.193 465.6 172.012 470.368 197.527Z"
        fill="#D4324F" stroke="black" stroke-width="16" />
    <path
        d="M911.913 115.226C918.509 150.514 895.249 184.466 859.961 191.061C824.674 197.656 790.721 174.397 784.126 139.109C777.531 103.822 800.791 69.8691 836.078 63.274C871.366 56.6789 905.318 79.9388 911.913 115.226Z"
        fill="#E48047" stroke="black" stroke-width="16" />
    <path
        d="M894.479 692.951C901.046 728.091 877.883 761.901 842.743 768.469C807.603 775.036 773.793 751.874 767.225 716.734C760.658 681.594 783.82 647.783 818.96 641.215C854.1 634.648 887.911 657.811 894.479 692.951Z"
        fill="#EDC140" stroke="black" stroke-width="16" />
    <path fill-rule="evenodd" clip-rule="evenodd"
        d="M1327.89 145.696C1335.73 142.192 1341.31 145.363 1344.62 155.211C1344.63 164.498 1340.8 168.763 1333.12 168.007C1327.09 165.631 1324.2 160.627 1324.44 152.994C1325.02 150.013 1326.16 147.58 1327.89 145.696Z"
        fill="#0DA3C4" />
    <path fill-rule="evenodd" clip-rule="evenodd"
        d="M1421.21 263.361C1433.14 259.843 1440.35 263.922 1442.83 275.598C1436.89 290.052 1428.37 291.644 1417.27 280.374C1414.55 273.652 1415.86 267.982 1421.21 263.361Z"
        fill="#8F3A7E" />
    <path fill-rule="evenodd" clip-rule="evenodd"
        d="M516.103 382.215C516.413 394.652 510.608 400.556 498.689 399.927C486.263 390.453 486.93 381.813 500.69 374.004C507.887 373.114 513.024 375.851 516.103 382.215Z"
        fill="#E48047" />
    <a href="https://www.coldplay.com/tour-date/diego-armando-maradona-stadium/" target="_blank" class="btn">
        <g filter="url(#filter0_d_148_2)">
            <ellipse cx="1168.71" cy="297.142" rx="161" ry="161" transform="rotate(-10.5862 1168.71 297.142)"
                fill="#EDC140" />
            <path
                d="M1319.1 269.033C1334.63 352.095 1279.88 432.014 1196.81 447.537C1113.75 463.061 1033.83 408.311 1018.31 325.25C1002.79 242.189 1057.54 162.27 1140.6 146.746C1223.66 131.222 1303.58 185.972 1319.1 269.033Z"
                stroke="black" stroke-width="16" />
        </g>
    </a>
    <a href="https://goo.gl/maps/TeSUejuywGHJRtkQ7" target="_blank" class="btn">
        <g filter="url(#filter1_d_148_2)">
            <ellipse cx="721.331" cy="453.832" rx="185" ry="185" transform="rotate(4.41382 721.331 453.832)"
                fill="#0DA3C4" />
            <path
                d="M897.806 467.454C890.283 564.919 805.174 637.83 707.709 630.307C610.245 622.784 537.333 537.675 544.856 440.21C552.379 342.746 637.488 269.834 734.953 277.357C832.417 284.88 905.329 369.99 897.806 467.454Z"
                stroke="black" stroke-width="16" />
        </g>
    </a>
    <path
        d="M1078.6 298.087L1064.92 300.645L1064.37 297.719L1099.71 291.114L1100.26 294.04L1086.58 296.597L1092.2 326.7L1084.23 328.19L1078.6 298.087ZM1108.94 297.202C1107.65 297.443 1106.51 297.266 1105.52 296.67C1104.56 296.068 1103.97 295.185 1103.76 294.021C1103.54 292.857 1103.77 291.821 1104.45 290.913C1105.15 290 1106.15 289.422 1107.44 289.181C1108.73 288.94 1109.86 289.121 1110.82 289.723C1111.81 290.319 1112.41 291.199 1112.63 292.363C1112.84 293.527 1112.6 294.566 1111.89 295.479C1111.21 296.387 1110.23 296.961 1108.94 297.202ZM1105.89 300.214L1112.87 298.909L1117.19 322.029L1110.21 323.334L1105.89 300.214ZM1137.78 318.67C1133.25 319.517 1129.55 319.15 1126.68 317.57C1123.84 315.952 1122.06 313.193 1121.33 309.293C1120.6 305.392 1121.27 302.191 1123.34 299.687C1125.44 297.147 1128.75 295.453 1133.28 294.607C1137.15 293.884 1140.35 294.003 1142.87 294.963C1145.39 295.924 1147.07 297.693 1147.91 300.271L1142.72 301.241C1142.07 299.475 1141 298.225 1139.53 297.491C1138.09 296.751 1136.38 296.567 1134.4 296.937C1131.82 297.419 1130.01 298.604 1128.96 300.493C1127.94 302.375 1127.73 304.874 1128.31 307.988C1128.89 311.102 1130 313.353 1131.62 314.742C1133.28 316.125 1135.4 316.575 1137.98 316.093C1139.9 315.735 1141.41 314.947 1142.52 313.731C1143.65 312.478 1144.21 310.925 1144.19 309.073L1149.38 308.103C1149.53 310.81 1148.58 313.07 1146.54 314.883C1144.54 316.691 1141.61 317.953 1137.78 318.67ZM1174.95 311.234L1163.78 301.603L1161.6 304.306L1163.3 313.412L1156.32 314.717L1150.29 282.491L1157.28 281.186L1160.65 299.257L1169.74 288.282L1175.3 287.241L1167.3 297.185L1181.98 309.92L1174.95 311.234ZM1197.18 305.028C1199.32 304.629 1200.87 303.851 1201.83 302.696C1202.81 301.535 1203.3 299.978 1203.3 298.026L1208.49 297.056C1208.44 299.767 1207.37 302.05 1205.27 303.907C1203.21 305.726 1200.39 306.968 1196.84 307.632C1194.01 308.161 1191.47 308.148 1189.21 307.592C1186.96 307.005 1185.09 305.921 1183.63 304.339C1182.19 302.752 1181.24 300.732 1180.78 298.278C1180.32 295.793 1180.47 293.536 1181.23 291.506C1182.02 289.47 1183.36 287.77 1185.25 286.407C1187.15 285.044 1189.51 284.098 1192.34 283.569C1196.71 282.751 1200.24 283.166 1202.93 284.813C1205.61 286.46 1207.32 289.265 1208.06 293.229L1187.78 297.02L1187.83 297.303C1188.97 303.406 1192.09 305.981 1197.18 305.028ZM1193.04 285.978C1191.09 286.342 1189.65 287.263 1188.72 288.738C1187.79 290.214 1187.39 292.145 1187.51 294.532L1200.86 292.036C1200.16 289.692 1199.15 288.01 1197.82 286.989C1196.49 285.968 1194.89 285.631 1193.04 285.978ZM1224.2 302.518C1221.84 302.959 1219.92 302.715 1218.45 301.787C1217 300.821 1216.06 299.205 1215.64 296.94L1212.98 282.738L1208.88 283.506L1209.27 280.893L1212.67 280.258L1213.1 273.439L1218.29 272.469L1219.51 278.98L1225.88 277.789L1225.58 280.384L1219.97 281.433L1222.71 296.107C1222.95 297.397 1223.4 298.322 1224.06 298.883C1224.72 299.443 1225.55 299.63 1226.55 299.441C1227.69 299.23 1228.76 298.719 1229.78 297.91L1230.25 300.411C1228.92 301.31 1226.9 302.013 1224.2 302.518ZM1245.54 298.529C1238.81 299.787 1234.42 298.15 1232.37 293.618L1237.56 292.648C1238.16 294.13 1239.07 295.165 1240.29 295.751C1241.54 296.332 1243.18 296.431 1245.23 296.049C1247.08 295.702 1248.46 295.07 1249.37 294.153C1250.29 293.198 1250.64 292.091 1250.41 290.833C1250.23 289.921 1249.55 289.219 1248.35 288.727C1247.15 288.234 1245.6 288.02 1243.69 288.084C1239.55 288.207 1236.47 287.886 1234.48 287.12C1232.48 286.354 1231.3 285.028 1230.95 283.141C1230.57 281.096 1231.24 279.31 1232.97 277.781C1234.74 276.247 1237.52 275.124 1241.33 274.413C1244.98 273.731 1247.97 273.775 1250.29 274.545C1252.65 275.309 1254.21 276.791 1254.98 278.991L1249.79 279.961C1249.2 278.573 1248.28 277.607 1247 277.064C1245.76 276.515 1244.26 276.405 1242.5 276.734C1239.01 277.387 1237.45 278.735 1237.83 280.78C1237.94 281.377 1238.18 281.854 1238.54 282.21C1238.92 282.529 1239.59 282.779 1240.54 282.96C1241.47 283.11 1242.82 283.168 1244.57 283.134C1248.56 283.071 1251.59 283.499 1253.65 284.416C1255.73 285.296 1256.97 286.758 1257.35 288.803C1258.26 293.647 1254.32 296.889 1245.54 298.529Z"
        fill="black" />
    <path
        d="M1078.6 298.087L1080.57 297.72L1080.2 295.754L1078.23 296.121L1078.6 298.087ZM1064.92 300.645L1062.95 301.012L1063.32 302.978L1065.29 302.61L1064.92 300.645ZM1064.37 297.719L1064 295.753L1062.04 296.121L1062.41 298.087L1064.37 297.719ZM1099.71 291.114L1101.68 290.747L1101.31 288.781L1099.34 289.148L1099.71 291.114ZM1100.26 294.04L1100.63 296.006L1102.59 295.638L1102.22 293.672L1100.26 294.04ZM1086.58 296.597L1086.21 294.631L1084.24 294.998L1084.61 296.964L1086.58 296.597ZM1092.2 326.7L1092.57 328.666L1094.54 328.298L1094.17 326.332L1092.2 326.7ZM1084.23 328.19L1082.26 328.557L1082.63 330.523L1084.6 330.156L1084.23 328.19ZM1078.23 296.121L1064.55 298.679L1065.29 302.61L1078.97 300.053L1078.23 296.121ZM1066.88 300.277L1066.34 297.352L1062.41 298.087L1062.95 301.012L1066.88 300.277ZM1064.74 299.685L1100.08 293.08L1099.34 289.148L1064 295.753L1064.74 299.685ZM1097.75 291.482L1098.29 294.407L1102.22 293.672L1101.68 290.747L1097.75 291.482ZM1099.89 292.074L1086.21 294.631L1086.94 298.563L1100.63 296.006L1099.89 292.074ZM1084.61 296.964L1090.24 327.067L1094.17 326.332L1088.54 296.23L1084.61 296.964ZM1091.83 324.734L1083.86 326.224L1084.6 330.156L1092.57 328.666L1091.83 324.734ZM1086.19 327.823L1080.57 297.72L1076.64 298.455L1082.26 328.557L1086.19 327.823ZM1105.52 296.67L1104.46 298.364L1104.47 298.373L1104.49 298.383L1105.52 296.67ZM1104.45 290.913L1102.86 289.688L1102.85 289.703L1102.84 289.718L1104.45 290.913ZM1110.82 289.723L1109.75 291.417L1109.77 291.427L1109.78 291.436L1110.82 289.723ZM1111.89 295.479L1110.31 294.254L1110.3 294.269L1110.29 294.284L1111.89 295.479ZM1105.89 300.214L1105.52 298.248L1103.56 298.616L1103.92 300.582L1105.89 300.214ZM1112.87 298.909L1114.84 298.542L1114.47 296.576L1112.51 296.943L1112.87 298.909ZM1117.19 322.029L1117.56 323.995L1119.53 323.627L1119.16 321.661L1117.19 322.029ZM1110.21 323.334L1108.25 323.701L1108.61 325.667L1110.58 325.3L1110.21 323.334ZM1108.57 295.236C1107.7 295.401 1107.07 295.266 1106.55 294.956L1104.49 298.383C1105.96 299.266 1107.61 299.486 1109.31 299.168L1108.57 295.236ZM1106.58 294.976C1106.12 294.686 1105.84 294.297 1105.72 293.653L1101.79 294.388C1102.11 296.072 1103 297.45 1104.46 298.364L1106.58 294.976ZM1105.72 293.653C1105.6 293.01 1105.72 292.546 1106.05 292.109L1102.84 289.718C1101.81 291.096 1101.48 292.704 1101.79 294.388L1105.72 293.653ZM1106.03 292.139C1106.39 291.665 1106.93 291.311 1107.81 291.147L1107.07 287.215C1105.37 287.533 1103.91 288.335 1102.86 289.688L1106.03 292.139ZM1107.81 291.147C1108.69 290.983 1109.29 291.124 1109.75 291.417L1111.88 288.029C1110.43 287.118 1108.77 286.898 1107.07 287.215L1107.81 291.147ZM1109.78 291.436C1110.27 291.73 1110.55 292.113 1110.66 292.73L1114.59 291.996C1114.27 290.286 1113.34 288.908 1111.85 288.009L1109.78 291.436ZM1110.66 292.73C1110.78 293.348 1110.66 293.804 1110.31 294.254L1113.47 296.705C1114.54 295.327 1114.91 293.705 1114.59 291.996L1110.66 292.73ZM1110.29 294.284C1109.96 294.725 1109.45 295.072 1108.57 295.236L1109.31 299.168C1111.01 298.851 1112.47 298.049 1113.49 296.675L1110.29 294.284ZM1106.26 302.18L1113.24 300.875L1112.51 296.943L1105.52 298.248L1106.26 302.18ZM1110.91 299.276L1115.23 322.396L1119.16 321.661L1114.84 298.542L1110.91 299.276ZM1116.83 320.063L1109.84 321.368L1110.58 325.3L1117.56 323.995L1116.83 320.063ZM1112.18 322.966L1107.86 299.847L1103.92 300.582L1108.25 323.701L1112.18 322.966ZM1126.68 317.57L1125.69 319.308L1125.7 319.315L1125.72 319.321L1126.68 317.57ZM1123.34 299.687L1124.88 300.963L1124.88 300.961L1123.34 299.687ZM1142.87 294.963L1143.58 293.094L1143.58 293.094L1142.87 294.963ZM1147.91 300.271L1148.28 302.237L1150.52 301.818L1149.82 299.651L1147.91 300.271ZM1142.72 301.241L1140.85 301.937L1141.43 303.516L1143.09 303.207L1142.72 301.241ZM1139.53 297.491L1138.62 299.27L1138.63 299.276L1138.64 299.281L1139.53 297.491ZM1128.96 300.493L1127.21 299.523L1127.2 299.533L1127.2 299.543L1128.96 300.493ZM1131.62 314.742L1130.32 316.263L1130.33 316.271L1130.34 316.278L1131.62 314.742ZM1142.52 313.731L1144 315.078L1144 315.072L1142.52 313.731ZM1144.19 309.073L1143.82 307.107L1142.17 307.416L1142.19 309.095L1144.19 309.073ZM1149.38 308.103L1151.37 307.994L1151.25 305.719L1149.01 306.137L1149.38 308.103ZM1146.54 314.883L1145.21 313.389L1145.2 313.398L1146.54 314.883ZM1137.41 316.704C1133.15 317.5 1129.97 317.099 1127.65 315.818L1125.72 319.321C1129.13 321.201 1133.34 321.534 1138.14 320.636L1137.41 316.704ZM1127.67 315.832C1125.45 314.567 1123.94 312.383 1123.29 308.925L1119.36 309.66C1120.17 314.004 1122.23 317.338 1125.69 319.308L1127.67 315.832ZM1123.29 308.925C1122.65 305.467 1123.27 302.908 1124.88 300.963L1121.8 298.412C1119.27 301.473 1118.55 305.318 1119.36 309.66L1123.29 308.925ZM1124.88 300.961C1126.58 298.902 1129.4 297.367 1133.65 296.573L1132.91 292.641C1128.1 293.54 1124.29 295.392 1121.8 298.414L1124.88 300.961ZM1133.65 296.573C1137.31 295.888 1140.1 296.049 1142.16 296.833L1143.58 293.094C1140.59 291.956 1136.99 291.879 1132.91 292.641L1133.65 296.573ZM1142.16 296.833C1144.11 297.577 1145.36 298.885 1146.01 300.891L1149.82 299.651C1148.79 296.501 1146.67 294.271 1143.58 293.094L1142.16 296.833ZM1147.55 298.305L1142.36 299.275L1143.09 303.207L1148.28 302.237L1147.55 298.305ZM1144.6 300.545C1143.79 298.377 1142.42 296.695 1140.42 295.702L1138.64 299.281C1139.59 299.756 1140.34 300.573 1140.85 301.937L1144.6 300.545ZM1140.45 295.712C1138.52 294.724 1136.34 294.54 1134.03 294.971L1134.77 298.903C1136.42 298.594 1137.66 298.779 1138.62 299.27L1140.45 295.712ZM1134.03 294.971C1131 295.537 1128.61 297.001 1127.21 299.523L1130.71 301.462C1131.4 300.207 1132.63 299.301 1134.77 298.903L1134.03 294.971ZM1127.2 299.543C1125.88 301.982 1125.72 305 1126.34 308.355L1130.28 307.62C1129.74 304.747 1130 302.769 1130.72 301.442L1127.2 299.543ZM1126.34 308.355C1126.97 311.71 1128.22 314.464 1130.32 316.263L1132.92 313.221C1131.78 312.242 1130.81 310.493 1130.28 307.62L1126.34 308.355ZM1130.34 316.278C1132.56 318.125 1135.32 318.625 1138.35 318.059L1137.61 314.127C1135.48 314.526 1134.01 314.125 1132.9 313.206L1130.34 316.278ZM1138.35 318.059C1140.61 317.636 1142.54 316.673 1144 315.078L1141.04 312.385C1140.28 313.222 1139.19 313.833 1137.61 314.127L1138.35 318.059ZM1144 315.072C1145.51 313.408 1146.21 311.354 1146.19 309.051L1142.19 309.095C1142.2 310.497 1141.8 311.547 1141.03 312.39L1144 315.072ZM1144.55 311.039L1149.74 310.069L1149.01 306.137L1143.82 307.107L1144.55 311.039ZM1147.38 308.212C1147.49 310.307 1146.8 311.978 1145.21 313.389L1147.87 316.378C1150.36 314.162 1151.56 311.314 1151.37 307.994L1147.38 308.212ZM1145.2 313.398C1143.57 314.872 1141.04 316.026 1137.41 316.704L1138.14 320.636C1142.19 319.88 1145.51 318.509 1147.88 316.369L1145.2 313.398ZM1174.95 311.234L1173.65 312.749L1174.38 313.376L1175.32 313.2L1174.95 311.234ZM1163.78 301.603L1165.08 300.088L1163.52 298.739L1162.22 300.347L1163.78 301.603ZM1161.6 304.306L1160.04 303.05L1159.46 303.767L1159.63 304.673L1161.6 304.306ZM1163.3 313.412L1163.67 315.378L1165.63 315.011L1165.26 313.045L1163.3 313.412ZM1156.32 314.717L1154.35 315.085L1154.72 317.051L1156.68 316.683L1156.32 314.717ZM1150.29 282.491L1149.93 280.525L1147.96 280.893L1148.33 282.859L1150.29 282.491ZM1157.28 281.186L1159.24 280.819L1158.87 278.853L1156.91 279.22L1157.28 281.186ZM1160.65 299.257L1158.69 299.625L1159.47 303.822L1162.19 300.532L1160.65 299.257ZM1169.74 288.282L1169.37 286.316L1168.66 286.449L1168.19 287.007L1169.74 288.282ZM1175.3 287.241L1176.86 288.495L1180.25 284.281L1174.94 285.275L1175.3 287.241ZM1167.3 297.185L1165.74 295.931L1164.53 297.433L1165.99 298.696L1167.3 297.185ZM1181.98 309.92L1182.35 311.886L1186.43 311.124L1183.29 308.409L1181.98 309.92ZM1176.26 309.719L1165.08 300.088L1162.47 303.118L1173.65 312.749L1176.26 309.719ZM1162.22 300.347L1160.04 303.05L1163.15 305.562L1165.33 302.859L1162.22 300.347ZM1159.63 304.673L1161.33 313.779L1165.26 313.045L1163.56 303.938L1159.63 304.673ZM1162.93 311.446L1155.95 312.751L1156.68 316.683L1163.67 315.378L1162.93 311.446ZM1158.28 314.35L1152.26 282.124L1148.33 282.859L1154.35 315.085L1158.28 314.35ZM1150.66 284.457L1157.64 283.152L1156.91 279.22L1149.93 280.525L1150.66 284.457ZM1155.31 281.553L1158.69 299.625L1162.62 298.89L1159.24 280.819L1155.31 281.553ZM1162.19 300.532L1171.28 289.557L1168.19 287.007L1159.11 297.982L1162.19 300.532ZM1170.1 290.248L1175.67 289.207L1174.94 285.275L1169.37 286.316L1170.1 290.248ZM1173.75 285.987L1165.74 295.931L1168.86 298.439L1176.86 288.495L1173.75 285.987ZM1165.99 298.696L1180.67 311.431L1183.29 308.409L1168.61 295.674L1165.99 298.696ZM1181.62 307.954L1174.59 309.268L1175.32 313.2L1182.35 311.886L1181.62 307.954ZM1201.83 302.696L1200.3 301.4L1200.29 301.41L1200.28 301.421L1201.83 302.696ZM1203.3 298.026L1202.93 296.06L1201.29 296.366L1201.3 298.033L1203.3 298.026ZM1208.49 297.056L1210.49 297.091L1210.53 294.64L1208.12 295.09L1208.49 297.056ZM1205.27 303.907L1206.59 305.409L1206.6 305.404L1205.27 303.907ZM1189.21 307.592L1188.71 309.528L1188.72 309.531L1188.74 309.534L1189.21 307.592ZM1183.63 304.339L1182.14 305.681L1182.15 305.691L1182.16 305.7L1183.63 304.339ZM1181.23 291.506L1179.36 290.781L1179.36 290.793L1179.35 290.804L1181.23 291.506ZM1185.25 286.407L1184.09 284.784L1184.09 284.784L1185.25 286.407ZM1208.06 293.229L1208.43 295.194L1210.4 294.827L1210.03 292.861L1208.06 293.229ZM1187.78 297.02L1187.41 295.054L1185.44 295.422L1185.81 297.388L1187.78 297.02ZM1187.51 294.532L1185.51 294.632L1185.62 296.918L1187.87 296.498L1187.51 294.532ZM1200.86 292.036L1201.23 294.002L1203.41 293.594L1202.78 291.465L1200.86 292.036ZM1197.55 306.994C1199.95 306.546 1202 305.619 1203.37 303.971L1200.28 301.421C1199.74 302.084 1198.7 302.711 1196.82 303.062L1197.55 306.994ZM1203.35 303.992C1204.72 302.375 1205.3 300.311 1205.3 298.019L1201.3 298.033C1201.3 299.645 1200.9 300.695 1200.3 301.4L1203.35 303.992ZM1203.66 299.992L1208.85 299.022L1208.12 295.09L1202.93 296.06L1203.66 299.992ZM1206.49 297.022C1206.45 299.152 1205.64 300.912 1203.95 302.41L1206.6 305.404C1209.1 303.189 1210.43 300.382 1210.49 297.091L1206.49 297.022ZM1203.95 302.405C1202.23 303.923 1199.78 305.048 1196.47 305.666L1197.21 309.598C1201.01 308.888 1204.18 307.529 1206.59 305.409L1203.95 302.405ZM1196.47 305.666C1193.86 306.155 1191.61 306.123 1189.69 305.65L1188.74 309.534C1191.32 310.172 1194.16 310.167 1197.21 309.598L1196.47 305.666ZM1189.72 305.656C1187.8 305.157 1186.28 304.258 1185.09 302.979L1182.16 305.7C1183.91 307.584 1186.11 308.853 1188.71 309.528L1189.72 305.656ZM1185.11 302.998C1183.96 301.727 1183.15 300.062 1182.75 297.911L1178.82 298.646C1179.33 301.401 1180.42 303.777 1182.14 305.681L1185.11 302.998ZM1182.75 297.911C1182.34 295.724 1182.49 293.843 1183.1 292.207L1179.35 290.804C1178.45 293.229 1178.3 295.863 1178.82 298.646L1182.75 297.911ZM1183.09 292.23C1183.73 290.58 1184.82 289.183 1186.42 288.03L1184.09 284.784C1181.9 286.357 1180.3 288.36 1179.36 290.781L1183.09 292.23ZM1186.42 288.03C1188.03 286.874 1190.1 286.022 1192.71 285.534L1191.97 281.603C1188.92 282.173 1186.27 283.213 1184.09 284.784L1186.42 288.03ZM1192.71 285.534C1196.79 284.771 1199.77 285.22 1201.88 286.518L1203.97 283.108C1200.72 281.113 1196.63 280.732 1191.97 281.603L1192.71 285.534ZM1201.88 286.518C1203.96 287.791 1205.43 290.022 1206.1 293.596L1210.03 292.861C1209.22 288.508 1207.27 285.129 1203.97 283.108L1201.88 286.518ZM1207.7 291.263L1187.41 295.054L1188.14 298.986L1208.43 295.194L1207.7 291.263ZM1185.81 297.388L1185.86 297.671L1189.79 296.936L1189.74 296.653L1185.81 297.388ZM1185.86 297.671C1186.47 300.947 1187.68 303.644 1189.75 305.354C1191.89 307.12 1194.6 307.546 1197.55 306.994L1196.82 303.062C1194.67 303.463 1193.27 303.078 1192.3 302.269C1191.25 301.404 1190.32 299.762 1189.79 296.936L1185.86 297.671ZM1192.67 284.012C1190.25 284.463 1188.29 285.658 1187.03 287.673L1190.41 289.804C1191 288.867 1191.92 288.222 1193.4 287.944L1192.67 284.012ZM1187.03 287.673C1185.81 289.605 1185.37 291.984 1185.51 294.632L1189.5 294.431C1189.4 292.307 1189.77 290.824 1190.41 289.804L1187.03 287.673ZM1187.87 296.498L1201.23 294.002L1200.49 290.07L1187.14 292.566L1187.87 296.498ZM1202.78 291.465C1202.01 288.895 1200.82 286.773 1199.03 285.403L1196.6 288.576C1197.47 289.247 1198.31 290.49 1198.94 292.607L1202.78 291.465ZM1199.03 285.403C1197.19 283.99 1195.01 283.575 1192.67 284.012L1193.4 287.944C1194.78 287.687 1195.78 287.946 1196.6 288.576L1199.03 285.403ZM1218.45 301.787L1217.34 303.451L1217.36 303.466L1217.38 303.479L1218.45 301.787ZM1212.98 282.738L1214.95 282.371L1214.58 280.405L1212.62 280.772L1212.98 282.738ZM1208.88 283.506L1206.9 283.21L1206.48 285.988L1209.25 285.472L1208.88 283.506ZM1209.27 280.893L1208.9 278.927L1207.5 279.189L1207.29 280.597L1209.27 280.893ZM1212.67 280.258L1213.03 282.224L1214.56 281.939L1214.66 280.386L1212.67 280.258ZM1213.1 273.439L1212.73 271.473L1211.2 271.758L1211.1 273.311L1213.1 273.439ZM1218.29 272.469L1220.26 272.101L1219.89 270.135L1217.92 270.503L1218.29 272.469ZM1219.51 278.98L1217.54 279.347L1217.91 281.313L1219.87 280.946L1219.51 278.98ZM1225.88 277.789L1227.86 278.016L1228.17 275.326L1225.51 275.823L1225.88 277.789ZM1225.58 280.384L1225.95 282.35L1227.4 282.079L1227.57 280.611L1225.58 280.384ZM1219.97 281.433L1219.6 279.467L1217.63 279.835L1218 281.801L1219.97 281.433ZM1224.06 298.883L1225.35 297.36L1225.35 297.36L1224.06 298.883ZM1229.78 297.91L1231.75 297.543L1231.14 294.282L1228.54 296.343L1229.78 297.91ZM1230.25 300.411L1231.37 302.067L1232.46 301.332L1232.22 300.043L1230.25 300.411ZM1223.83 300.552C1221.78 300.936 1220.42 300.668 1219.51 300.094L1217.38 303.479C1219.42 304.763 1221.9 304.983 1224.57 304.484L1223.83 300.552ZM1219.56 300.122C1218.69 299.543 1217.96 298.485 1217.6 296.573L1213.67 297.308C1214.16 299.925 1215.31 302.099 1217.34 303.451L1219.56 300.122ZM1217.6 296.573L1214.95 282.371L1211.02 283.106L1213.67 297.308L1217.6 296.573ZM1212.62 280.772L1208.51 281.54L1209.25 285.472L1213.35 284.704L1212.62 280.772ZM1210.86 283.801L1211.25 281.189L1207.29 280.597L1206.9 283.21L1210.86 283.801ZM1209.64 282.859L1213.03 282.224L1212.3 278.292L1208.9 278.927L1209.64 282.859ZM1214.66 280.386L1215.1 273.566L1211.1 273.311L1210.67 280.131L1214.66 280.386ZM1213.47 275.405L1218.66 274.435L1217.92 270.503L1212.73 271.473L1213.47 275.405ZM1216.32 272.836L1217.54 279.347L1221.47 278.612L1220.26 272.101L1216.32 272.836ZM1219.87 280.946L1226.24 279.755L1225.51 275.823L1219.14 277.014L1219.87 280.946ZM1223.89 277.562L1223.59 280.157L1227.57 280.611L1227.86 278.016L1223.89 277.562ZM1225.21 278.418L1219.6 279.467L1220.33 283.399L1225.95 282.35L1225.21 278.418ZM1218 281.801L1220.74 296.475L1224.67 295.74L1221.93 281.066L1218 281.801ZM1220.74 296.475C1221.03 297.992 1221.61 299.428 1222.76 300.405L1225.35 297.36C1225.18 297.216 1224.87 296.802 1224.67 295.74L1220.74 296.475ZM1222.76 300.405C1223.96 301.431 1225.44 301.684 1226.92 301.407L1226.19 297.475C1225.65 297.575 1225.47 297.456 1225.35 297.36L1222.76 300.405ZM1226.92 301.407C1228.41 301.129 1229.78 300.462 1231.03 299.477L1228.54 296.343C1227.74 296.977 1226.96 297.331 1226.19 297.475L1226.92 301.407ZM1227.82 298.277L1228.29 300.778L1232.22 300.043L1231.75 297.543L1227.82 298.277ZM1229.13 298.754C1228.14 299.428 1226.43 300.066 1223.83 300.552L1224.57 304.484C1227.38 303.959 1229.71 303.193 1231.37 302.067L1229.13 298.754ZM1232.37 293.618L1232 291.652L1229.5 292.12L1230.55 294.443L1232.37 293.618ZM1237.56 292.648L1239.41 291.895L1238.8 290.382L1237.19 290.682L1237.56 292.648ZM1240.29 295.751L1239.42 297.553L1239.43 297.559L1239.45 297.565L1240.29 295.751ZM1249.37 294.153L1250.79 295.555L1250.8 295.547L1249.37 294.153ZM1248.35 288.727L1249.11 286.876L1249.11 286.876L1248.35 288.727ZM1243.69 288.084L1243.75 290.083L1243.76 290.083L1243.69 288.084ZM1234.48 287.12L1233.76 288.988L1233.76 288.988L1234.48 287.12ZM1232.97 277.781L1231.66 276.272L1231.65 276.281L1232.97 277.781ZM1250.29 274.545L1249.66 276.444L1249.67 276.447L1250.29 274.545ZM1254.98 278.991L1255.35 280.957L1257.64 280.529L1256.87 278.331L1254.98 278.991ZM1249.79 279.961L1247.95 280.738L1248.57 282.223L1250.16 281.927L1249.79 279.961ZM1247 277.064L1246.19 278.893L1246.21 278.898L1246.22 278.904L1247 277.064ZM1238.54 282.21L1237.13 283.631L1237.2 283.694L1237.26 283.751L1238.54 282.21ZM1240.54 282.96L1240.16 284.925L1240.19 284.93L1240.22 284.935L1240.54 282.96ZM1244.57 283.134L1244.54 281.134L1244.53 281.134L1244.57 283.134ZM1253.65 284.416L1252.84 286.243L1252.85 286.251L1252.87 286.258L1253.65 284.416ZM1245.18 296.563C1242.01 297.154 1239.63 297.017 1237.9 296.371C1236.24 295.751 1235.01 294.607 1234.19 292.793L1230.55 294.443C1231.78 297.161 1233.78 299.102 1236.5 300.119C1239.16 301.11 1242.34 301.162 1245.91 300.495L1245.18 296.563ZM1232.74 295.584L1237.93 294.614L1237.19 290.682L1232 291.652L1232.74 295.584ZM1235.71 293.401C1236.46 295.253 1237.68 296.712 1239.42 297.553L1241.16 293.95C1240.47 293.617 1239.87 293.008 1239.41 291.895L1235.71 293.401ZM1239.45 297.565C1241.22 298.39 1243.34 298.437 1245.59 298.015L1244.86 294.083C1243.03 294.426 1241.85 294.274 1241.13 293.938L1239.45 297.565ZM1245.59 298.015C1247.67 297.626 1249.5 296.871 1250.79 295.555L1247.94 292.75C1247.43 293.269 1246.49 293.778 1244.86 294.083L1245.59 298.015ZM1250.8 295.547C1252.16 294.148 1252.73 292.393 1252.37 290.466L1248.44 291.201C1248.55 291.79 1248.43 292.247 1247.93 292.758L1250.8 295.547ZM1252.37 290.466C1252.03 288.641 1250.66 287.514 1249.11 286.876L1247.59 290.577C1248.02 290.751 1248.23 290.915 1248.33 291.019C1248.42 291.104 1248.43 291.155 1248.44 291.201L1252.37 290.466ZM1249.11 286.876C1247.56 286.238 1245.69 286.016 1243.62 286.085L1243.76 290.083C1245.51 290.024 1246.75 290.231 1247.59 290.577L1249.11 286.876ZM1243.63 286.085C1239.55 286.206 1236.81 285.872 1235.19 285.253L1233.76 288.988C1236.14 289.901 1239.54 290.208 1243.75 290.083L1243.63 286.085ZM1235.19 285.253C1233.75 284.702 1233.12 283.888 1232.92 282.773L1228.98 283.508C1229.48 286.167 1231.2 288.007 1233.76 288.988L1235.19 285.253ZM1232.92 282.773C1232.68 281.508 1233.02 280.406 1234.3 279.281L1231.65 276.281C1229.46 278.213 1228.46 280.684 1228.98 283.508L1232.92 282.773ZM1234.29 279.29C1235.66 278.096 1238.04 277.063 1241.7 276.379L1240.96 272.447C1237.01 273.185 1233.82 274.398 1231.66 276.272L1234.29 279.29ZM1241.7 276.379C1245.17 275.73 1247.78 275.821 1249.66 276.443L1250.92 272.646C1248.15 271.729 1244.79 271.732 1240.96 272.447L1241.7 276.379ZM1249.67 276.447C1251.48 277.033 1252.54 278.083 1253.09 279.651L1256.87 278.331C1255.88 275.499 1253.82 273.585 1250.91 272.642L1249.67 276.447ZM1254.61 277.025L1249.42 277.995L1250.16 281.927L1255.35 280.957L1254.61 277.025ZM1251.63 279.185C1250.87 277.364 1249.58 275.99 1247.79 275.224L1246.22 278.904C1246.97 279.224 1247.54 279.782 1247.95 280.738L1251.63 279.185ZM1247.81 275.235C1246.1 274.478 1244.16 274.388 1242.13 274.768L1242.86 278.7C1244.35 278.422 1245.42 278.552 1246.19 278.893L1247.81 275.235ZM1242.13 274.768C1240.26 275.118 1238.58 275.704 1237.4 276.724C1236.08 277.87 1235.55 279.436 1235.87 281.147L1239.8 280.412C1239.76 280.188 1239.78 280.077 1239.8 280.03C1239.82 279.984 1239.86 279.887 1240.02 279.746C1240.4 279.417 1241.25 279.002 1242.86 278.7L1242.13 274.768ZM1235.87 281.147C1236.04 282.063 1236.43 282.936 1237.13 283.631L1239.95 280.789C1239.93 280.773 1239.85 280.692 1239.8 280.412L1235.87 281.147ZM1237.26 283.751C1238.05 284.404 1239.14 284.728 1240.16 284.925L1240.91 280.996C1240.51 280.92 1240.23 280.839 1240.03 280.765C1239.83 280.688 1239.78 280.642 1239.81 280.669L1237.26 283.751ZM1240.22 284.935C1241.34 285.114 1242.82 285.169 1244.61 285.133L1244.53 281.134C1242.82 281.168 1241.61 281.107 1240.85 280.985L1240.22 284.935ZM1244.6 285.134C1248.5 285.073 1251.17 285.503 1252.84 286.243L1254.46 282.589C1252.01 281.495 1248.63 281.07 1244.54 281.134L1244.6 285.134ZM1252.87 286.258C1254.4 286.905 1255.14 287.852 1255.38 289.17L1259.32 288.435C1258.8 285.664 1257.07 283.687 1254.43 282.573L1252.87 286.258ZM1255.38 289.17C1255.55 290.075 1255.48 290.81 1255.25 291.434C1255.01 292.061 1254.57 292.696 1253.81 293.324C1252.23 294.624 1249.45 295.765 1245.18 296.563L1245.91 300.495C1250.42 299.653 1253.99 298.353 1256.35 296.411C1257.56 295.418 1258.47 294.231 1258.99 292.837C1259.52 291.439 1259.6 289.953 1259.32 288.435L1255.38 289.17Z"
        fill="black" />
    <path
        d="M591.348 429.152L605.705 430.261C612.309 430.77 617.243 432.547 620.507 435.592C623.804 438.606 625.25 442.746 624.844 448.01C624.408 453.657 622.353 457.832 618.678 460.533C615.037 463.204 609.947 464.288 603.406 463.783L588.762 462.653L591.348 429.152ZM604.305 460.868C608.006 461.153 610.89 460.172 612.958 457.925C615.027 455.645 616.245 452.129 616.612 447.375C616.945 443.068 616.24 439.723 614.498 437.342C612.791 434.932 610.102 433.585 606.433 433.302L599.255 432.748L597.127 460.314L604.305 460.868ZM635.673 440.277C634.365 440.176 633.31 439.709 632.507 438.877C631.737 438.047 631.397 437.042 631.488 435.861C631.579 434.681 632.069 433.74 632.958 433.038C633.878 432.339 634.993 432.04 636.301 432.141C637.609 432.242 638.648 432.707 639.419 433.537C640.221 434.369 640.577 435.375 640.486 436.556C640.394 437.736 639.889 438.676 638.968 439.376C638.079 440.077 636.981 440.378 635.673 440.277ZM631.947 442.396L639.03 442.943L637.22 466.393L630.137 465.846L631.947 442.396ZM646.13 443.491L653.213 444.038L652.84 448.871C653.576 447.227 654.619 445.992 655.966 445.165C657.346 444.341 659.009 444.004 660.955 444.154C661.593 444.203 662.13 444.309 662.567 444.471L661.815 448.601C661.324 448.307 660.664 448.127 659.835 448.063C657.474 447.881 655.661 448.704 654.396 450.532C653.132 452.36 652.4 454.566 652.201 457.151L651.403 467.488L644.32 466.941L646.13 443.491ZM678.035 467.522C680.205 467.689 681.901 467.338 683.123 466.47C684.377 465.604 685.254 464.227 685.753 462.34L691.017 462.746C690.27 465.353 688.645 467.281 686.141 468.532C683.672 469.754 680.635 470.226 677.029 469.947C674.158 469.726 671.706 469.055 669.674 467.935C667.645 466.784 666.126 465.254 665.118 463.347C664.142 461.442 663.75 459.246 663.942 456.757C664.136 454.237 664.863 452.094 666.123 450.33C667.414 448.568 669.151 447.274 671.333 446.447C673.515 445.621 676.042 445.318 678.913 445.54C683.348 445.882 686.649 447.196 688.815 449.482C690.982 451.767 691.91 454.92 691.6 458.94L671.021 457.352L670.999 457.639C670.521 463.828 672.866 467.123 678.035 467.522ZM678.961 448.047C676.982 447.894 675.354 448.411 674.075 449.596C672.796 450.781 671.906 452.541 671.404 454.878L684.948 455.923C684.88 453.479 684.336 451.591 683.315 450.261C682.294 448.93 680.843 448.192 678.961 448.047ZM709.567 472.459C704.972 472.104 701.495 470.793 699.134 468.524C696.808 466.226 695.798 463.099 696.103 459.143C696.409 455.187 697.886 452.268 700.534 450.386C703.217 448.475 706.856 447.697 711.45 448.051C715.375 448.354 718.431 449.296 720.62 450.878C722.809 452.459 723.975 454.603 724.12 457.31L718.855 456.904C718.679 455.028 717.975 453.546 716.743 452.456C715.543 451.368 713.938 450.747 711.928 450.592C709.312 450.39 707.254 451.065 705.754 452.619C704.286 454.174 703.43 456.531 703.186 459.69C702.942 462.849 703.427 465.309 704.639 467.072C705.882 468.837 707.812 469.82 710.429 470.022C712.375 470.172 714.04 469.803 715.425 468.915C716.843 467.998 717.783 466.642 718.242 464.848L723.506 465.254C722.948 467.907 721.451 469.846 719.013 471.07C716.608 472.296 713.459 472.759 709.567 472.459ZM737.122 474.586C734.729 474.401 732.94 473.669 731.755 472.39C730.604 471.082 730.118 469.279 730.295 466.982L731.407 452.577L727.243 452.255L728.297 449.833L731.743 450.099L733.927 443.624L739.192 444.031L738.682 450.635L745.143 451.134L744.185 453.563L738.49 453.123L737.341 468.007C737.24 469.315 737.435 470.325 737.925 471.037C738.416 471.749 739.172 472.144 740.193 472.223C741.342 472.312 742.513 472.097 743.709 471.58L743.513 474.116C741.996 474.641 739.866 474.798 737.122 474.586ZM754.008 449.411C752.7 449.31 751.645 448.843 750.843 448.011C750.072 447.181 749.733 446.176 749.824 444.996C749.915 443.815 750.405 442.874 751.293 442.172C752.214 441.473 753.328 441.174 754.636 441.275C755.944 441.376 756.984 441.841 757.754 442.671C758.556 443.503 758.912 444.51 758.821 445.69C758.73 446.871 758.224 447.81 757.303 448.51C756.415 449.211 755.316 449.512 754.008 449.411ZM750.282 451.53L757.365 452.077L755.555 475.527L748.472 474.98L750.282 451.53ZM776.545 477.629C773.546 477.397 770.984 476.702 768.858 475.543C766.733 474.384 765.151 472.85 764.111 470.94C763.073 468.998 762.65 466.783 762.842 464.295C763.034 461.806 763.791 459.698 765.112 457.971C766.435 456.211 768.236 454.922 770.513 454.103C772.791 453.284 775.43 452.99 778.429 453.221C781.428 453.453 783.99 454.148 786.115 455.307C788.24 456.466 789.821 458.016 790.859 459.958C791.899 461.868 792.323 464.067 792.131 466.555C791.939 469.044 791.181 471.168 789.858 472.927C788.537 474.655 786.738 475.928 784.46 476.747C782.182 477.566 779.544 477.86 776.545 477.629ZM776.737 475.14C779.066 475.32 780.967 474.6 782.44 472.981C783.915 471.329 784.769 469.004 785 466.005C785.232 463.006 784.744 460.593 783.537 458.767C782.332 456.909 780.566 455.89 778.237 455.71C775.907 455.53 774.005 456.266 772.53 457.917C771.057 459.537 770.205 461.846 769.973 464.845C769.742 467.844 770.228 470.273 771.433 472.131C772.64 473.957 774.408 474.96 776.737 475.14ZM798.684 455.266L805.767 455.813L805.467 459.689C806.305 458.406 807.503 457.439 809.061 456.789C810.654 456.11 812.392 455.843 814.274 455.988C817.401 456.23 819.796 457.217 821.46 458.95C823.155 460.686 823.895 462.957 823.678 465.765L822.525 480.697L815.442 480.15L816.628 464.788C816.941 460.736 815.406 458.579 812.024 458.318C810.046 458.165 808.426 458.778 807.164 460.157C805.903 461.536 805.176 463.47 804.983 465.959L803.957 479.263L796.874 478.717L798.684 455.266ZM839.579 482.494C832.751 481.967 828.933 479.249 828.124 474.341L833.389 474.747C833.587 476.335 834.198 477.57 835.221 478.451C836.276 479.335 837.841 479.857 839.914 480.017C841.797 480.162 843.293 479.908 844.402 479.256C845.546 478.574 846.167 477.595 846.266 476.319C846.337 475.393 845.858 474.538 844.827 473.752C843.796 472.967 842.351 472.358 840.491 471.925C836.456 470.972 833.573 469.867 831.84 468.61C830.108 467.353 829.316 465.767 829.463 463.853C829.623 461.779 830.738 460.228 832.807 459.2C834.909 458.175 837.889 457.811 841.75 458.109C845.451 458.395 848.325 459.21 850.371 460.556C852.45 461.904 853.576 463.74 853.749 466.064L848.485 465.658C848.279 464.166 847.631 462.992 846.542 462.138C845.484 461.286 844.062 460.791 842.276 460.653C838.734 460.38 836.883 461.28 836.723 463.354C836.677 463.96 836.781 464.482 837.036 464.918C837.325 465.326 837.903 465.74 838.769 466.16C839.638 466.548 840.923 466.952 842.624 467.372C846.496 468.345 849.308 469.541 851.06 470.96C852.847 472.349 853.66 474.081 853.5 476.155C853.121 481.068 848.48 483.181 839.579 482.494Z"
        fill="black" />
    <path
        d="M591.348 429.152L591.502 427.158L589.508 427.004L589.354 428.998L591.348 429.152ZM620.507 435.592L619.142 437.054L619.15 437.061L619.157 437.068L620.507 435.592ZM618.678 460.533L619.861 462.145L619.862 462.144L618.678 460.533ZM588.762 462.653L586.768 462.499L586.614 464.493L588.608 464.647L588.762 462.653ZM612.958 457.925L614.43 459.279L614.438 459.269L612.958 457.925ZM614.498 437.342L612.866 438.498L612.875 438.511L612.884 438.523L614.498 437.342ZM599.255 432.748L599.408 430.753L597.414 430.6L597.26 432.594L599.255 432.748ZM597.127 460.314L595.133 460.16L594.979 462.154L596.973 462.308L597.127 460.314ZM591.194 431.146L605.551 432.255L605.859 428.267L591.502 427.158L591.194 431.146ZM605.551 432.255C611.914 432.746 616.338 434.438 619.142 437.054L621.871 434.129C618.149 430.657 612.705 428.795 605.859 428.267L605.551 432.255ZM619.157 437.068C621.916 439.589 623.218 443.08 622.85 447.856L626.838 448.164C627.282 442.411 625.693 437.623 621.856 434.115L619.157 437.068ZM622.85 447.856C622.447 453.075 620.588 456.646 617.493 458.921L619.862 462.144C624.117 459.017 626.369 454.239 626.838 448.164L622.85 447.856ZM617.494 458.92C614.382 461.205 609.835 462.273 603.56 461.789L603.252 465.777C610.059 466.302 615.693 465.204 619.861 462.145L617.494 458.92ZM603.56 461.789L588.916 460.659L588.608 464.647L603.252 465.777L603.56 461.789ZM590.756 462.807L593.342 429.306L589.354 428.998L586.768 462.499L590.756 462.807ZM604.151 462.862C608.318 463.183 611.857 462.076 614.43 459.279L611.485 456.571C609.924 458.269 607.695 459.123 604.459 458.874L604.151 462.862ZM614.438 459.269C616.931 456.524 618.223 452.496 618.606 447.529L614.618 447.221C614.268 451.761 613.123 454.767 611.477 456.58L614.438 459.269ZM618.606 447.529C618.959 442.961 618.242 439.072 616.112 436.161L612.884 438.523C614.238 440.374 614.931 443.174 614.618 447.221L618.606 447.529ZM616.13 436.186C613.996 433.174 610.69 431.624 606.587 431.308L606.279 435.296C609.514 435.545 611.585 436.689 612.866 438.498L616.13 436.186ZM606.587 431.308L599.408 430.753L599.101 434.742L606.279 435.296L606.587 431.308ZM597.26 432.594L595.133 460.16L599.121 460.467L601.249 432.901L597.26 432.594ZM596.973 462.308L604.151 462.862L604.459 458.874L597.281 458.319L596.973 462.308ZM632.507 438.877L631.042 440.238L631.054 440.251L631.067 440.265L632.507 438.877ZM632.958 433.038L631.748 431.446L631.733 431.457L631.719 431.469L632.958 433.038ZM639.419 433.537L637.953 434.898L637.966 434.912L637.979 434.925L639.419 433.537ZM638.968 439.376L637.758 437.783L637.743 437.794L637.729 437.806L638.968 439.376ZM631.947 442.396L632.101 440.402L630.107 440.248L629.953 442.242L631.947 442.396ZM639.03 442.943L641.024 443.097L641.178 441.103L639.184 440.949L639.03 442.943ZM637.22 466.393L637.066 468.387L639.06 468.541L639.214 466.547L637.22 466.393ZM630.137 465.846L628.143 465.692L627.989 467.686L629.983 467.84L630.137 465.846ZM635.827 438.283C634.937 438.214 634.363 437.921 633.947 437.489L631.067 440.265C632.256 441.498 633.793 442.137 635.519 442.271L635.827 438.283ZM633.973 437.516C633.601 437.116 633.432 436.668 633.482 436.015L629.494 435.708C629.362 437.416 629.872 438.978 631.042 440.238L633.973 437.516ZM633.482 436.015C633.533 435.363 633.769 434.946 634.197 434.608L631.719 431.469C630.37 432.534 629.626 433.999 629.494 435.708L633.482 436.015ZM634.168 434.631C634.645 434.268 635.257 434.066 636.147 434.135L636.455 430.147C634.729 430.014 633.112 430.41 631.748 431.446L634.168 434.631ZM636.147 434.135C637.039 434.204 637.579 434.495 637.953 434.898L640.884 432.176C639.718 430.92 638.179 430.28 636.455 430.147L636.147 434.135ZM637.979 434.925C638.374 435.335 638.54 435.775 638.491 436.402L642.48 436.71C642.613 434.976 642.068 433.404 640.859 432.149L637.979 434.925ZM638.491 436.402C638.443 437.029 638.211 437.439 637.758 437.783L640.178 440.968C641.566 439.914 642.346 438.444 642.48 436.71L638.491 436.402ZM637.729 437.806C637.297 438.147 636.719 438.351 635.827 438.283L635.519 442.271C637.243 442.404 638.862 442.008 640.207 440.945L637.729 437.806ZM631.793 444.39L638.876 444.937L639.184 440.949L632.101 440.402L631.793 444.39ZM637.036 442.789L635.226 466.239L639.214 466.547L641.024 443.097L637.036 442.789ZM637.374 464.399L630.291 463.852L629.983 467.84L637.066 468.387L637.374 464.399ZM632.131 466L633.941 442.55L629.953 442.242L628.143 465.692L632.131 466ZM646.13 443.491L646.284 441.497L644.29 441.343L644.136 443.337L646.13 443.491ZM653.213 444.038L655.207 444.192L655.361 442.197L653.367 442.044L653.213 444.038ZM652.84 448.871L650.846 448.717L654.665 449.689L652.84 448.871ZM655.966 445.165L654.94 443.448L654.93 443.454L654.92 443.46L655.966 445.165ZM662.567 444.471L664.535 444.829L664.835 443.179L663.263 442.596L662.567 444.471ZM661.815 448.601L660.786 450.316L663.265 451.804L663.783 448.959L661.815 448.601ZM654.396 450.532L652.752 449.394L652.752 449.394L654.396 450.532ZM651.403 467.488L651.249 469.482L653.243 469.636L653.397 467.642L651.403 467.488ZM644.32 466.941L642.326 466.787L642.172 468.781L644.166 468.935L644.32 466.941ZM645.976 445.485L653.059 446.032L653.367 442.044L646.284 441.497L645.976 445.485ZM651.219 443.884L650.846 448.717L654.834 449.025L655.207 444.192L651.219 443.884ZM654.665 449.689C655.261 448.359 656.054 447.457 657.012 446.87L654.92 443.46C653.183 444.526 651.892 446.095 651.014 448.053L654.665 449.689ZM656.992 446.882C657.946 446.312 659.177 446.023 660.801 446.148L661.109 442.16C658.84 441.985 656.745 442.369 654.94 443.448L656.992 446.882ZM660.801 446.148C661.317 446.188 661.66 446.267 661.871 446.346L663.263 442.596C662.601 442.35 661.868 442.218 661.109 442.16L660.801 446.148ZM660.599 444.113L659.847 448.243L663.783 448.959L664.535 444.829L660.599 444.113ZM662.844 446.886C661.995 446.376 660.998 446.147 659.988 446.069L659.681 450.057C660.331 450.107 660.654 450.237 660.786 450.316L662.844 446.886ZM659.988 446.069C656.975 445.836 654.452 446.936 652.752 449.394L656.041 451.67C656.87 450.472 657.972 449.925 659.681 450.057L659.988 446.069ZM652.752 449.394C651.254 451.559 650.429 454.119 650.207 456.997L654.195 457.305C654.371 455.014 655.01 453.161 656.041 451.67L652.752 449.394ZM650.207 456.997L649.409 467.334L653.397 467.642L654.195 457.305L650.207 456.997ZM651.557 465.494L644.474 464.947L644.166 468.935L651.249 469.482L651.557 465.494ZM646.314 467.095L648.124 443.645L644.136 443.337L642.326 466.787L646.314 467.095ZM683.123 466.47L681.987 464.824L681.976 464.832L681.965 464.84L683.123 466.47ZM685.753 462.34L685.907 460.346L684.245 460.218L683.819 461.829L685.753 462.34ZM691.017 462.746L692.94 463.297L693.615 460.941L691.171 460.752L691.017 462.746ZM686.141 468.532L687.028 470.325L687.035 470.321L686.141 468.532ZM669.674 467.935L668.687 469.675L668.698 469.681L668.709 469.687L669.674 467.935ZM665.118 463.347L663.338 464.259L663.344 464.271L663.35 464.282L665.118 463.347ZM666.123 450.33L664.51 449.147L664.502 449.158L664.495 449.168L666.123 450.33ZM671.333 446.447L670.625 444.577L670.625 444.577L671.333 446.447ZM691.6 458.94L691.446 460.934L693.44 461.088L693.594 459.094L691.6 458.94ZM671.021 457.352L671.175 455.358L669.181 455.204L669.027 457.198L671.021 457.352ZM671.404 454.878L669.449 454.458L668.969 456.696L671.25 456.872L671.404 454.878ZM684.948 455.923L684.794 457.917L687.009 458.088L686.947 455.868L684.948 455.923ZM677.881 469.516C680.312 469.703 682.538 469.339 684.281 468.1L681.965 464.84C681.263 465.338 680.097 465.675 678.189 465.527L677.881 469.516ZM684.259 468.116C686.006 466.91 687.101 465.067 687.686 462.851L683.819 461.829C683.407 463.388 682.749 464.298 681.987 464.824L684.259 468.116ZM685.599 464.334L690.863 464.741L691.171 460.752L685.907 460.346L685.599 464.334ZM689.094 462.196C688.507 464.244 687.268 465.734 685.247 466.743L687.035 470.321C690.022 468.829 692.033 466.462 692.94 463.297L689.094 462.196ZM685.254 466.74C683.193 467.759 680.539 468.212 677.183 467.953L676.875 471.941C680.73 472.239 684.15 471.749 687.028 470.325L685.254 466.74ZM677.183 467.953C674.53 467.748 672.369 467.137 670.64 466.184L668.709 469.687C671.044 470.974 673.786 471.703 676.875 471.941L677.183 467.953ZM670.661 466.196C668.936 465.217 667.701 463.955 666.886 462.412L663.35 464.282C664.551 466.554 666.354 468.351 668.687 469.675L670.661 466.196ZM666.898 462.435C666.116 460.91 665.767 459.093 665.936 456.911L661.948 456.603C661.732 459.398 662.167 461.974 663.338 464.259L666.898 462.435ZM665.936 456.911C666.107 454.692 666.736 452.913 667.751 451.492L664.495 449.168C662.991 451.275 662.165 453.781 661.948 456.603L665.936 456.911ZM667.736 451.512C668.783 450.084 670.195 449.017 672.041 448.318L670.625 444.577C668.107 445.531 666.046 447.052 664.51 449.147L667.736 451.512ZM672.041 448.318C673.892 447.617 676.114 447.33 678.759 447.534L679.067 443.546C675.97 443.307 673.138 443.625 670.625 444.577L672.041 448.318ZM678.759 447.534C682.903 447.854 685.656 449.056 687.364 450.858L690.267 448.106C687.641 445.336 683.793 443.911 679.067 443.546L678.759 447.534ZM687.364 450.858C689.039 452.625 689.885 455.162 689.606 458.786L693.594 459.094C693.935 454.678 692.925 450.91 690.267 448.106L687.364 450.858ZM691.754 456.946L671.175 455.358L670.867 459.346L691.446 460.934L691.754 456.946ZM669.027 457.198L669.005 457.485L672.993 457.793L673.015 457.506L669.027 457.198ZM669.005 457.485C668.748 460.808 669.213 463.725 670.77 465.912C672.379 468.172 674.885 469.284 677.881 469.516L678.189 465.527C676.016 465.36 674.765 464.626 674.029 463.592C673.24 462.484 672.772 460.659 672.993 457.793L669.005 457.485ZM679.114 446.053C676.665 445.864 674.462 446.511 672.716 448.129L675.434 451.063C676.246 450.31 677.3 449.925 678.807 450.041L679.114 446.053ZM672.716 448.129C671.042 449.68 670.005 451.865 669.449 454.458L673.36 455.297C673.806 453.218 674.55 451.882 675.434 451.063L672.716 448.129ZM671.25 456.872L684.794 457.917L685.102 453.929L671.558 452.884L671.25 456.872ZM686.947 455.868C686.873 453.187 686.272 450.83 684.902 449.043L681.728 451.478C682.399 452.353 682.887 453.771 682.949 455.979L686.947 455.868ZM684.902 449.043C683.49 447.203 681.484 446.236 679.114 446.053L678.807 450.041C680.202 450.149 681.099 450.658 681.728 451.478L684.902 449.043ZM699.134 468.524L697.729 469.947L697.739 469.957L697.749 469.966L699.134 468.524ZM700.534 450.386L701.693 452.017L701.695 452.015L700.534 450.386ZM720.62 450.878L721.791 449.256L721.791 449.256L720.62 450.878ZM724.12 457.31L723.966 459.304L726.238 459.479L726.117 457.204L724.12 457.31ZM718.855 456.904L716.864 457.091L717.022 458.768L718.701 458.898L718.855 456.904ZM716.743 452.456L715.4 453.938L715.409 453.946L715.418 453.954L716.743 452.456ZM705.754 452.619L704.315 451.229L704.307 451.238L704.3 451.246L705.754 452.619ZM704.639 467.072L702.991 468.205L702.997 468.214L703.004 468.224L704.639 467.072ZM715.425 468.915L716.504 470.599L716.511 470.595L715.425 468.915ZM718.242 464.848L718.396 462.854L716.721 462.725L716.304 464.352L718.242 464.848ZM723.506 465.254L725.463 465.666L725.932 463.436L723.66 463.26L723.506 465.254ZM719.013 471.07L718.116 469.282L718.105 469.288L719.013 471.07ZM709.72 470.465C705.403 470.131 702.433 468.921 700.52 467.082L697.749 469.966C700.557 472.665 704.542 474.077 709.413 474.453L709.72 470.465ZM700.54 467.102C698.721 465.305 697.827 462.804 698.097 459.297L694.109 458.989C693.769 463.395 694.895 467.148 697.729 469.947L700.54 467.102ZM698.097 459.297C698.368 455.789 699.634 453.479 701.693 452.017L699.376 448.756C696.137 451.057 694.449 454.585 694.109 458.989L698.097 459.297ZM701.695 452.015C703.869 450.467 706.985 449.713 711.297 450.046L711.604 446.057C706.727 445.681 702.566 446.483 699.374 448.757L701.695 452.015ZM711.297 450.046C715.012 450.332 717.665 451.21 719.449 452.499L721.791 449.256C719.198 447.383 715.738 446.376 711.604 446.057L711.297 450.046ZM719.449 452.499C721.145 453.724 722.01 455.31 722.122 457.416L726.117 457.204C725.941 453.895 724.473 451.193 721.791 449.256L719.449 452.499ZM724.273 455.316L719.009 454.91L718.701 458.898L723.966 459.304L724.273 455.316ZM720.846 456.716C720.63 454.415 719.736 452.434 718.069 450.958L715.418 453.954C716.214 454.658 716.728 455.642 716.864 457.091L720.846 456.716ZM718.086 450.974C716.484 449.522 714.424 448.778 712.082 448.598L711.774 452.586C713.453 452.715 714.602 453.215 715.4 453.938L718.086 450.974ZM712.082 448.598C709.012 448.361 706.319 449.155 704.315 451.229L707.193 454.008C708.19 452.976 709.612 452.419 711.774 452.586L712.082 448.598ZM704.3 451.246C702.398 453.261 701.455 456.133 701.192 459.536L705.18 459.844C705.405 456.93 706.174 455.087 707.209 453.991L704.3 451.246ZM701.192 459.536C700.93 462.939 701.42 465.922 702.991 468.205L706.286 465.938C705.433 464.697 704.955 462.758 705.18 459.844L701.192 459.536ZM703.004 468.224C704.665 470.581 707.205 471.779 710.275 472.016L710.583 468.028C708.42 467.861 707.1 467.092 706.273 465.919L703.004 468.224ZM710.275 472.016C712.571 472.193 714.689 471.763 716.504 470.599L714.345 467.232C713.392 467.843 712.178 468.151 710.583 468.028L710.275 472.016ZM716.511 470.595C718.394 469.377 719.608 467.575 720.179 465.344L716.304 464.352C715.957 465.709 715.293 466.619 714.339 467.236L716.511 470.595ZM718.088 466.842L723.352 467.248L723.66 463.26L718.396 462.854L718.088 466.842ZM721.549 464.843C721.117 466.895 720.013 468.33 718.116 469.282L719.911 472.857C722.889 471.362 724.779 468.919 725.463 465.666L721.549 464.843ZM718.105 469.288C716.142 470.289 713.4 470.749 709.72 470.465L709.413 474.453C713.518 474.77 717.074 474.304 719.922 472.852L718.105 469.288ZM731.755 472.39L730.253 473.711L730.27 473.731L730.288 473.75L731.755 472.39ZM731.407 452.577L733.401 452.731L733.555 450.737L731.561 450.583L731.407 452.577ZM727.243 452.255L725.409 451.458L724.289 454.033L727.089 454.249L727.243 452.255ZM728.297 449.833L728.451 447.839L727.031 447.73L726.463 449.036L728.297 449.833ZM731.743 450.099L731.589 452.093L733.14 452.213L733.638 450.739L731.743 450.099ZM733.927 443.624L734.081 441.63L732.53 441.51L732.032 442.985L733.927 443.624ZM739.192 444.031L741.186 444.184L741.34 442.19L739.346 442.036L739.192 444.031ZM738.682 450.635L736.688 450.481L736.534 452.475L738.528 452.629L738.682 450.635ZM745.143 451.134L747.003 451.867L747.996 449.348L745.297 449.139L745.143 451.134ZM744.185 453.563L744.031 455.557L745.504 455.671L746.045 454.297L744.185 453.563ZM738.49 453.123L738.644 451.129L736.65 450.975L736.496 452.97L738.49 453.123ZM737.925 471.037L739.572 469.902L739.572 469.902L737.925 471.037ZM743.709 471.58L745.703 471.734L745.958 468.427L742.914 469.744L743.709 471.58ZM743.513 474.116L744.167 476.006L745.406 475.578L745.507 474.27L743.513 474.116ZM737.276 472.592C735.194 472.431 733.954 471.821 733.222 471.031L730.288 473.75C731.926 475.518 734.264 476.371 736.968 476.58L737.276 472.592ZM733.257 471.069C732.566 470.284 732.139 469.075 732.289 467.136L728.301 466.828C728.096 469.483 728.642 471.879 730.253 473.711L733.257 471.069ZM732.289 467.136L733.401 452.731L729.413 452.423L728.301 466.828L732.289 467.136ZM731.561 450.583L727.397 450.261L727.089 454.249L731.253 454.571L731.561 450.583ZM729.077 453.053L730.131 450.631L726.463 449.036L725.409 451.458L729.077 453.053ZM728.143 451.827L731.589 452.093L731.896 448.105L728.451 447.839L728.143 451.827ZM733.638 450.739L735.822 444.264L732.032 442.985L729.848 449.46L733.638 450.739ZM733.773 445.618L739.038 446.025L739.346 442.036L734.081 441.63L733.773 445.618ZM737.198 443.877L736.688 450.481L740.676 450.789L741.186 444.184L737.198 443.877ZM738.528 452.629L744.989 453.128L745.297 449.139L738.836 448.641L738.528 452.629ZM743.282 450.4L742.324 452.829L746.045 454.297L747.003 451.867L743.282 450.4ZM744.339 451.569L738.644 451.129L738.336 455.118L744.031 455.557L744.339 451.569ZM736.496 452.97L735.347 467.853L739.335 468.161L740.484 453.277L736.496 452.97ZM735.347 467.853C735.228 469.392 735.424 470.931 736.279 472.172L739.572 469.902C739.446 469.719 739.252 469.238 739.335 468.161L735.347 467.853ZM736.279 472.172C737.177 473.475 738.54 474.101 740.039 474.217L740.347 470.229C739.804 470.187 739.656 470.023 739.572 469.902L736.279 472.172ZM740.039 474.217C741.552 474.334 743.049 474.045 744.503 473.415L742.914 469.744C741.978 470.15 741.131 470.29 740.347 470.229L740.039 474.217ZM741.715 471.426L741.519 473.962L745.507 474.27L745.703 471.734L741.715 471.426ZM742.859 472.226C741.724 472.619 739.914 472.795 737.276 472.592L736.968 476.58C739.818 476.8 742.269 476.663 744.167 476.006L742.859 472.226ZM750.843 448.011L749.377 449.372L749.39 449.386L749.403 449.399L750.843 448.011ZM751.293 442.172L750.084 440.58L750.069 440.591L750.054 440.603L751.293 442.172ZM757.754 442.671L756.288 444.032L756.301 444.046L756.314 444.059L757.754 442.671ZM757.303 448.51L756.094 446.917L756.079 446.928L756.064 446.94L757.303 448.51ZM750.282 451.53L750.436 449.536L748.442 449.382L748.288 451.376L750.282 451.53ZM757.365 452.077L759.359 452.231L759.513 450.237L757.519 450.083L757.365 452.077ZM755.555 475.527L755.401 477.521L757.395 477.675L757.549 475.681L755.555 475.527ZM748.472 474.98L746.478 474.827L746.324 476.821L748.318 476.975L748.472 474.98ZM754.162 447.417C753.272 447.348 752.699 447.055 752.282 446.623L749.403 449.399C750.591 450.632 752.128 451.272 753.854 451.405L754.162 447.417ZM752.308 446.65C751.937 446.25 751.767 445.802 751.818 445.15L747.83 444.842C747.698 446.55 748.208 448.112 749.377 449.372L752.308 446.65ZM751.818 445.15C751.868 444.497 752.104 444.08 752.533 443.742L750.054 440.603C748.705 441.668 747.961 443.133 747.83 444.842L751.818 445.15ZM752.503 443.765C752.981 443.402 753.592 443.2 754.482 443.269L754.79 439.281C753.064 439.148 751.447 439.544 750.084 440.58L752.503 443.765ZM754.482 443.269C755.374 443.338 755.914 443.629 756.288 444.032L759.22 441.31C758.053 440.054 756.515 439.414 754.79 439.281L754.482 443.269ZM756.314 444.059C756.709 444.469 756.875 444.909 756.827 445.536L760.815 445.844C760.949 444.11 760.404 442.538 759.194 441.283L756.314 444.059ZM756.827 445.536C756.778 446.163 756.547 446.573 756.094 446.917L758.513 450.102C759.901 449.048 760.681 447.578 760.815 445.844L756.827 445.536ZM756.064 446.94C755.632 447.281 755.054 447.486 754.162 447.417L753.854 451.405C755.579 451.538 757.197 451.142 758.543 450.079L756.064 446.94ZM750.128 453.524L757.211 454.071L757.519 450.083L750.436 449.536L750.128 453.524ZM755.371 451.923L753.561 475.373L757.549 475.681L759.359 452.231L755.371 451.923ZM755.709 473.533L748.626 472.986L748.318 476.975L755.401 477.521L755.709 473.533ZM750.466 475.134L752.276 451.684L748.288 451.376L746.478 474.827L750.466 475.134ZM768.858 475.543L769.816 473.787L769.816 473.787L768.858 475.543ZM764.111 470.94L762.347 471.883L762.35 471.89L762.354 471.897L764.111 470.94ZM765.112 457.971L766.7 459.185L766.705 459.179L766.71 459.173L765.112 457.971ZM790.859 459.958L789.095 460.901L789.099 460.908L789.103 460.915L790.859 459.958ZM789.858 472.927L791.447 474.142L791.452 474.136L791.456 474.13L789.858 472.927ZM784.46 476.747L783.783 474.865L783.783 474.865L784.46 476.747ZM782.44 472.981L783.919 474.326L783.925 474.32L783.931 474.313L782.44 472.981ZM783.537 458.767L781.859 459.855L781.864 459.862L781.868 459.87L783.537 458.767ZM772.53 457.917L774.009 459.263L774.015 459.257L774.021 459.25L772.53 457.917ZM771.433 472.131L769.754 473.219L769.759 473.226L769.764 473.234L771.433 472.131ZM776.699 475.635C773.915 475.42 771.641 474.782 769.816 473.787L767.901 477.299C770.326 478.622 773.176 479.375 776.391 479.623L776.699 475.635ZM769.816 473.787C767.989 472.791 766.703 471.518 765.867 469.983L762.354 471.897C763.599 474.181 765.478 475.977 767.901 477.299L769.816 473.787ZM765.874 469.997C765.04 468.435 764.67 466.609 764.836 464.449L760.848 464.141C760.631 466.957 761.106 469.562 762.347 471.883L765.874 469.997ZM764.836 464.449C765.003 462.287 765.648 460.562 766.7 459.185L763.523 456.756C761.934 458.834 761.066 461.325 760.848 464.141L764.836 464.449ZM766.71 459.173C767.776 457.756 769.241 456.686 771.19 455.985L769.837 452.221C767.23 453.158 765.094 454.667 763.513 456.768L766.71 459.173ZM771.19 455.985C773.146 455.282 775.491 455.001 778.275 455.215L778.583 451.227C775.368 450.979 772.437 451.286 769.837 452.221L771.19 455.985ZM778.275 455.215C781.059 455.43 783.333 456.068 785.157 457.063L787.073 453.551C784.647 452.228 781.797 451.475 778.583 451.227L778.275 455.215ZM785.157 457.063C786.976 458.055 788.259 459.337 789.095 460.901L792.623 459.015C791.383 456.696 789.504 454.878 787.073 453.551L785.157 457.063ZM789.103 460.915C789.932 462.437 790.304 464.24 790.137 466.402L794.125 466.709C794.342 463.894 793.867 461.299 792.615 459.001L789.103 460.915ZM790.137 466.402C789.97 468.562 789.324 470.31 788.26 471.725L791.456 474.13C793.038 472.026 793.908 469.526 794.125 466.709L790.137 466.402ZM788.269 471.713C787.208 473.101 785.742 474.161 783.783 474.865L785.137 478.629C787.734 477.695 789.866 476.209 791.447 474.142L788.269 471.713ZM783.783 474.865C781.828 475.569 779.482 475.85 776.699 475.635L776.391 479.623C779.605 479.871 782.537 479.564 785.137 478.629L783.783 474.865ZM776.583 477.134C779.48 477.358 782 476.437 783.919 474.326L780.96 471.635C779.934 472.764 778.652 473.282 776.891 473.146L776.583 477.134ZM783.931 474.313C785.788 472.235 786.741 469.44 786.994 466.159L783.006 465.851C782.797 468.568 782.043 470.423 780.948 471.648L783.931 474.313ZM786.994 466.159C787.247 462.88 786.735 459.979 785.206 457.664L781.868 459.87C782.753 461.208 783.216 463.132 783.006 465.851L786.994 466.159ZM785.215 457.679C783.65 455.265 781.301 453.941 778.39 453.716L778.083 457.704C779.83 457.839 781.014 458.552 781.859 459.855L785.215 457.679ZM778.39 453.716C775.48 453.491 772.955 454.44 771.038 456.585L774.021 459.25C775.055 458.092 776.335 457.569 778.083 457.704L778.39 453.716ZM771.05 456.572C769.184 458.624 768.232 461.412 767.979 464.691L771.967 464.999C772.177 462.28 772.93 460.45 774.009 459.263L771.05 456.572ZM767.979 464.691C767.726 467.973 768.239 470.881 769.754 473.219L773.111 471.043C772.218 469.665 771.757 467.716 771.967 464.999L767.979 464.691ZM769.764 473.234C771.337 475.614 773.686 476.911 776.583 477.134L776.891 473.146C775.129 473.01 773.942 472.301 773.101 471.028L769.764 473.234ZM798.684 455.266L798.838 453.272L796.844 453.118L796.69 455.112L798.684 455.266ZM805.767 455.813L807.761 455.967L807.915 453.973L805.921 453.819L805.767 455.813ZM805.467 459.689L803.473 459.536L807.142 460.782L805.467 459.689ZM809.061 456.789L809.831 458.635L809.838 458.632L809.846 458.629L809.061 456.789ZM821.46 458.95L820.017 460.335L820.023 460.341L820.029 460.348L821.46 458.95ZM822.525 480.697L822.371 482.691L824.365 482.845L824.519 480.85L822.525 480.697ZM815.442 480.15L813.448 479.996L813.294 481.99L815.288 482.144L815.442 480.15ZM807.164 460.157L805.689 458.807L805.689 458.807L807.164 460.157ZM803.957 479.263L803.803 481.257L805.797 481.411L805.951 479.417L803.957 479.263ZM796.874 478.717L794.88 478.563L794.726 480.557L796.72 480.711L796.874 478.717ZM798.53 457.26L805.613 457.807L805.921 453.819L798.838 453.272L798.53 457.26ZM803.773 455.659L803.473 459.536L807.461 459.843L807.761 455.967L803.773 455.659ZM807.142 460.782C807.738 459.869 808.603 459.147 809.831 458.635L808.291 454.944C806.402 455.732 804.871 456.943 803.792 458.597L807.142 460.782ZM809.846 458.629C811.117 458.087 812.529 457.86 814.12 457.982L814.428 453.994C812.255 453.826 810.192 454.133 808.277 454.95L809.846 458.629ZM814.12 457.982C816.91 458.198 818.787 459.053 820.017 460.335L822.903 457.565C820.806 455.38 817.892 454.262 814.428 453.994L814.12 457.982ZM820.029 460.348C821.256 461.603 821.864 463.276 821.684 465.611L825.672 465.919C825.925 462.639 825.055 459.768 822.89 457.552L820.029 460.348ZM821.684 465.611L820.531 480.543L824.519 480.85L825.672 465.919L821.684 465.611ZM822.679 478.702L815.596 478.156L815.288 482.144L822.371 482.691L822.679 478.702ZM817.436 480.304L818.622 464.941L814.634 464.634L813.448 479.996L817.436 480.304ZM818.622 464.941C818.796 462.687 818.492 460.589 817.341 458.972C816.138 457.28 814.281 456.486 812.178 456.324L811.87 460.312C813.15 460.411 813.751 460.825 814.082 461.291C814.466 461.83 814.773 462.836 814.634 464.634L818.622 464.941ZM812.178 456.324C809.631 456.127 807.395 456.943 805.689 458.807L808.64 461.508C809.458 460.614 810.462 460.203 811.87 460.312L812.178 456.324ZM805.689 458.807C804.038 460.611 803.204 463.02 802.989 465.805L806.978 466.113C807.147 463.921 807.767 462.461 808.64 461.508L805.689 458.807ZM802.989 465.805L801.962 479.109L805.951 479.417L806.978 466.113L802.989 465.805ZM804.11 477.269L797.028 476.722L796.72 480.711L803.803 481.257L804.11 477.269ZM798.868 478.87L800.678 455.42L796.69 455.112L794.88 478.563L798.868 478.87ZM828.124 474.341L828.278 472.347L825.737 472.15L826.151 474.666L828.124 474.341ZM833.389 474.747L835.373 474.499L835.171 472.879L833.543 472.753L833.389 474.747ZM835.221 478.451L833.916 479.966L833.926 479.975L833.937 479.984L835.221 478.451ZM844.402 479.256L845.416 480.98L845.426 480.974L844.402 479.256ZM844.827 473.752L846.04 472.162L846.04 472.162L844.827 473.752ZM840.491 471.925L840.031 473.872L840.038 473.873L840.491 471.925ZM831.84 468.61L830.666 470.228L830.666 470.228L831.84 468.61ZM832.807 459.2L831.93 457.403L831.918 457.409L832.807 459.2ZM850.371 460.556L849.272 462.227L849.283 462.234L850.371 460.556ZM853.749 466.064L853.595 468.058L855.917 468.237L855.744 465.915L853.749 466.064ZM848.485 465.658L846.504 465.931L846.724 467.528L848.331 467.652L848.485 465.658ZM846.542 462.138L845.287 463.695L845.298 463.704L845.308 463.712L846.542 462.138ZM837.036 464.918L835.309 465.927L835.354 466.004L835.405 466.077L837.036 464.918ZM838.769 466.16L837.897 467.959L837.925 467.973L837.954 467.986L838.769 466.16ZM842.624 467.372L843.111 465.432L843.103 465.43L842.624 467.372ZM851.06 470.96L849.802 472.514L849.817 472.526L849.832 472.538L851.06 470.96ZM839.733 480.5C836.524 480.253 834.261 479.504 832.754 478.431C831.308 477.402 830.421 475.98 830.098 474.015L826.151 474.666C826.636 477.61 828.063 480.001 830.435 481.69C832.746 483.335 835.806 484.209 839.425 484.488L839.733 480.5ZM827.97 476.335L833.235 476.741L833.543 472.753L828.278 472.347L827.97 476.335ZM831.404 474.995C831.652 476.979 832.449 478.703 833.916 479.966L836.526 476.936C835.946 476.436 835.522 475.691 835.373 474.499L831.404 474.995ZM833.937 479.984C835.437 481.241 837.471 481.834 839.76 482.011L840.068 478.023C838.21 477.879 837.115 477.429 836.505 476.918L833.937 479.984ZM839.76 482.011C841.87 482.174 843.825 481.916 845.416 480.98L843.388 477.532C842.761 477.901 841.724 478.15 840.068 478.023L839.76 482.011ZM845.426 480.974C847.102 479.975 848.109 478.427 848.26 476.473L844.272 476.165C844.226 476.763 843.991 477.173 843.378 477.538L845.426 480.974ZM848.26 476.473C848.403 474.622 847.375 473.18 846.04 472.162L843.615 475.343C843.979 475.621 844.145 475.835 844.215 475.961C844.273 476.065 844.275 476.119 844.272 476.165L848.26 476.473ZM846.04 472.162C844.703 471.143 842.96 470.446 840.944 469.977L840.038 473.873C841.742 474.269 842.89 474.79 843.615 475.343L846.04 472.162ZM840.951 469.979C836.978 469.04 834.415 468.007 833.015 466.991L830.666 470.228C832.73 471.726 835.935 472.904 840.031 473.872L840.951 469.979ZM833.015 466.991C831.768 466.086 831.37 465.138 831.457 464.006L827.469 463.699C827.261 466.396 828.448 468.619 830.666 470.228L833.015 466.991ZM831.457 464.006C831.557 462.723 832.175 461.748 833.697 460.991L831.918 457.409C829.302 458.708 827.69 460.834 827.469 463.699L831.457 464.006ZM833.684 460.998C835.32 460.2 837.883 459.817 841.596 460.103L841.904 456.115C837.896 455.806 834.497 456.15 831.93 457.403L833.684 460.998ZM841.596 460.103C845.119 460.375 847.617 461.139 849.272 462.227L851.47 458.885C849.032 457.282 845.782 456.414 841.904 456.115L841.596 460.103ZM849.283 462.234C850.875 463.267 851.631 464.556 851.755 466.213L855.744 465.915C855.52 462.923 854.024 460.541 851.459 458.878L849.283 462.234ZM853.903 464.07L848.639 463.664L848.331 467.652L853.595 468.058L853.903 464.07ZM850.466 465.385C850.196 463.428 849.312 461.768 847.776 460.564L845.308 463.712C845.951 464.216 846.362 464.903 846.504 465.931L850.466 465.385ZM847.797 460.58C846.338 459.406 844.492 458.818 842.43 458.659L842.122 462.647C843.633 462.764 844.631 463.166 845.287 463.695L847.797 460.58ZM842.43 458.659C840.529 458.512 838.757 458.644 837.357 459.325C835.784 460.09 834.863 461.464 834.729 463.2L838.717 463.508C838.735 463.28 838.789 463.18 838.817 463.139C838.845 463.098 838.912 463.016 839.106 462.922C839.557 462.703 840.48 462.52 842.122 462.647L842.43 458.659ZM834.729 463.2C834.658 464.128 834.81 465.073 835.309 465.927L838.763 463.91C838.751 463.89 838.695 463.792 838.717 463.508L834.729 463.2ZM835.405 466.077C835.998 466.911 836.96 467.505 837.897 467.959L839.642 464.36C839.278 464.183 839.022 464.031 838.851 463.908C838.672 463.78 838.641 463.725 838.666 463.76L835.405 466.077ZM837.954 467.986C838.986 468.447 840.407 468.884 842.144 469.313L843.103 465.43C841.439 465.019 840.29 464.649 839.585 464.333L837.954 467.986ZM842.136 469.311C845.912 470.26 848.388 471.369 849.802 472.514L852.319 469.406C850.229 467.713 847.081 466.429 843.111 465.432L842.136 469.311ZM849.832 472.538C851.144 473.559 851.609 474.664 851.506 476.001L855.494 476.309C855.711 473.498 854.549 471.14 852.288 469.381L849.832 472.538ZM851.506 476.001C851.435 476.918 851.176 477.611 850.789 478.152C850.4 478.697 849.805 479.195 848.906 479.605C847.046 480.452 844.065 480.835 839.733 480.5L839.425 484.488C843.994 484.841 847.784 484.511 850.564 483.245C851.985 482.598 853.178 481.689 854.044 480.477C854.912 479.263 855.375 477.848 855.494 476.309L851.506 476.001Z"
        fill="black" />
    <path
        d="M1160.43 486.888C1163.27 502.089 1153.25 516.715 1138.05 519.555C1122.85 522.396 1108.22 512.377 1105.38 497.176C1102.54 481.975 1112.56 467.35 1127.76 464.509C1142.96 461.668 1157.58 471.687 1160.43 486.888Z"
        fill="#EBBE42" stroke="black" stroke-width="7.99999" />
    <path
        d="M1192.46 168.717C1177.04 167.527 1165.51 154.064 1166.7 138.645C1167.89 123.227 1181.35 111.693 1196.77 112.883C1212.19 114.073 1223.72 127.537 1222.53 142.955C1221.34 158.373 1207.88 169.907 1192.46 168.717Z"
        fill="#0DA3C4" stroke="black" stroke-width="7.99999" />
    <ellipse cx="660.667" cy="724.658" rx="16" ry="16" transform="rotate(-10.5862 660.667 724.658)" fill="#8DB958" />
    <ellipse cx="968.802" cy="106.098" rx="16" ry="16"
        transform="matrix(-0.937538 0.347884 -0.347885 -0.937537 1914 -131.462)" fill="#8DB958" />
    <path fill-rule="evenodd" clip-rule="evenodd"
        d="M1311.47 347.521C1326.54 341.588 1336.88 346.099 1342.49 361.054C1341.87 375.369 1334.33 382.203 1319.87 381.558C1308.61 378.305 1303.48 370.787 1304.46 359.004C1305.75 354.37 1308.09 350.542 1311.47 347.521Z"
        fill="#C43E56" />
    <path fill-rule="evenodd" clip-rule="evenodd"
        d="M322.543 599.844C323.494 607.048 320.075 610.969 312.286 611.606C305.57 609.637 303.26 605.573 305.355 599.414C308.29 594.948 312.492 593.629 317.961 595.454C320.001 596.562 321.528 598.025 322.543 599.844Z"
        fill="#CC344F" />
    <path fill-rule="evenodd" clip-rule="evenodd"
        d="M1080.06 853.433C1081.12 862.776 1077.04 867.896 1067.81 868.792C1059.87 866.295 1057.17 861.04 1059.71 853.027C1063.22 847.204 1068.21 845.455 1074.67 847.776C1077.08 849.195 1078.87 851.081 1080.06 853.433Z"
        fill="#8DB958" />
    <path fill-rule="evenodd" clip-rule="evenodd"
        d="M704.056 7.44193C705.119 16.7853 701.036 21.9056 691.807 22.8015C683.871 20.3046 681.171 15.0497 683.706 7.03579C687.222 1.21368 692.209 -0.536137 698.67 1.7852C701.075 3.20423 702.87 5.08981 704.056 7.44193Z"
        fill="#772E70" />
    <path fill-rule="evenodd" clip-rule="evenodd"
        d="M544.059 943.428C545.122 952.771 541.038 957.891 531.809 958.787C523.873 956.29 521.173 951.036 523.709 943.022C527.224 937.2 532.212 935.45 538.672 937.771C541.077 939.19 542.873 941.076 544.059 943.428Z"
        fill="#0DA3C4" />
    <path fill-rule="evenodd" clip-rule="evenodd"
        d="M998.002 454.112C999.064 463.455 994.981 468.575 985.752 469.471C977.816 466.975 975.116 461.72 977.652 453.706C981.167 447.884 986.155 446.134 992.615 448.455C995.02 449.874 996.816 451.76 998.002 454.112Z"
        fill="#EDBE40" />
    <path fill-rule="evenodd" clip-rule="evenodd"
        d="M914.498 820.882C915.197 827.022 912.513 830.387 906.448 830.976C901.233 829.335 899.458 825.882 901.124 820.615C903.435 816.789 906.712 815.639 910.958 817.165C912.539 818.097 913.719 819.336 914.498 820.882Z"
        fill="#CC344F" />
    <defs>
        <filter id="filter0_d_148_2" x="999.677" y="136.113" width="338.058" height="338.058"
            filterUnits="userSpaceOnUse" color-interpolation-filters="sRGB">
            <feFlood flood-opacity="0" result="BackgroundImageFix" />
            <feColorMatrix in="SourceAlpha" type="matrix" values="0 0 0 0 0 0 0 0 0 0 0 0 0 0 0 0 0 0 127 0"
                result="hardAlpha" />
            <feOffset dy="7.99999" />
            <feGaussianBlur stdDeviation="3.99999" />
            <feComposite in2="hardAlpha" operator="out" />
            <feColorMatrix type="matrix" values="0 0 0 0 1 0 0 0 0 1 0 0 0 0 1 0 0 0 0.25 0" />
            <feBlend mode="normal" in2="BackgroundImageFix" result="effect1_dropShadow_148_2" />
            <feBlend mode="normal" in="SourceGraphic" in2="effect1_dropShadow_148_2" result="shape" />
        </filter>
        <filter id="filter1_d_148_2" x="506.322" y="246.823" width="430.018" height="430.018"
            filterUnits="userSpaceOnUse" color-interpolation-filters="sRGB">
            <feFlood flood-opacity="0" result="BackgroundImageFix" />
            <feColorMatrix in="SourceAlpha" type="matrix" values="0 0 0 0 0 0 0 0 0 0 0 0 0 0 0 0 0 0 127 0"
                result="hardAlpha" />
            <feOffset dy="7.99999" />
            <feGaussianBlur stdDeviation="15" />
            <feComposite in2="hardAlpha" operator="out" />
            <feColorMatrix type="matrix" values="0 0 0 0 1 0 0 0 0 1 0 0 0 0 1 0 0 0 0.25 0" />
            <feBlend mode="normal" in2="BackgroundImageFix" result="effect1_dropShadow_148_2" />
            <feBlend mode="normal" in="SourceGraphic" in2="effect1_dropShadow_148_2" result="shape" />
        </filter>
    </defs>
</svg>