<?xml-stylesheet type="text/css" href="../css/main.css"?>
<svg width="934" height="934" viewBox="0 0 934 934" fill="none" xmlns="http://www.w3.org/2000/svg">
<path d="M159.787 583.964L228.48 590.682L499.52 319.642V202.413C499.52 182.252 476.375 171.053 459.947 183.746L267.307 341.293L159.786 351.746C137.384 353.986 120.212 372.653 120.212 395.053V540.653C120.212 563.059 137.384 581.726 159.786 583.965L159.787 583.964Z" fill="black"/>
<path d="M818.347 150.15L783.997 115.801C780.263 112.066 774.289 112.066 770.56 115.801L114.987 771.374C111.252 775.109 111.252 781.082 114.987 784.811L149.336 819.161C153.071 822.895 159.044 822.895 162.774 819.161L333.76 648.174L459.948 751.216C475.631 763.908 499.521 752.71 499.521 732.549V482.415L615.256 366.681C630.939 396.545 639.896 430.15 639.896 466.733C639.896 517.504 622.724 563.801 592.855 600.386C587.626 606.36 589.12 615.318 594.35 620.548L620.486 644.443C627.204 650.417 636.912 648.923 642.136 642.204C680.964 594.417 704.11 533.188 704.11 465.991C704.11 412.231 688.427 361.46 662.298 318.151L694.402 286.047C728.751 337.568 748.907 398.792 748.907 465.247C748.907 543.648 720.532 616.073 674.24 672.073C669.011 678.047 669.761 687.005 675.735 692.235L701.871 716.131C707.845 722.105 717.554 721.36 723.522 714.636C780.267 646.688 813.871 560.076 813.871 465.249C813.871 380.874 786.991 303.222 741.444 239.009L819.095 161.358C822.08 159.858 822.08 153.884 818.35 150.15H818.347Z" fill="black"/>
</svg>
