<svg width="137" height="94" viewBox="0 0 137 94" fill="none" xmlns="http://www.w3.org/2000/svg">
<path d="M0.402817 4.04942C2.25869 9.95664 5.00828 15.2244 8.47627 19.7452L3.08628 19.2155L19.3816 30.1982L19.0931 29.814C23.9364 33.1233 29.4173 35.5062 35.3255 36.8374C31.1687 33.0009 28.1299 27.9441 26.6782 21.3759C33.3325 20.1014 39.1369 20.9557 44.301 23.2574C44.0992 22.9767 43.8923 22.7021 43.685 22.427L43.6344 22.3599L43.837 22.4739L31.3765 3.4713L32.4251 11.6742C23.4815 5.64532 12.4295 2.81154 0.403104 4.04961L0.402817 4.04942Z" fill="#F2EA52"/>
<path d="M58.5252 0.0145239L54.4031 26.5529C47.4445 29.8471 42.9409 36.9157 42.9453 44.6518L42.8897 44.6084L19.3622 59.2622L40.7467 73.369L62.5739 66.9058L62.6619 66.8796L68.0436 65.1646L44.9357 46.2805L47.4598 42.4611L74.1813 64.2898L77.4327 66.9508L73.4316 68.2281L66.8373 70.331C71.1429 73.7095 75.6963 76.7614 80.459 79.4589C79.506 65.531 87.9404 52.549 101.004 47.7185C96.6692 44.4425 92.0937 41.4968 87.3148 38.9075L87.9267 45.2799L88.3226 49.4581L84.5951 47.5161L54.5223 31.7751L57.0408 27.9644L82.9902 41.5334L82.5025 36.449L79.9006 14.1158L58.5255 0.0149519L58.5252 0.0145239Z" fill="#0DA3C4"/>
<path d="M95.4027 55.9683C93.8294 57.188 92.3996 58.571 91.1429 60.0888L95.7499 63.4439C96.9262 61.9905 98.2455 60.6551 99.6934 59.4505L95.4028 55.9685L95.4027 55.9683Z" fill="#E7E0BF"/>
<path fill-rule="evenodd" clip-rule="evenodd" d="M105.313 51.1425C103.235 51.6693 101.268 52.4246 99.4389 53.3781L103.58 56.736C105.25 55.764 107.041 54.9527 108.928 54.3279C107.745 53.2411 106.543 52.1747 105.313 51.143L105.313 51.1425ZM112.745 58.0004C110.859 58.4155 109.071 59.04 107.405 59.8467L111.733 63.3603C113.104 62.6272 114.559 62.0254 116.086 61.553C114.995 60.3436 113.886 59.1565 112.745 58.0009L112.745 58.0004ZM85.754 70.7044C86.3653 68.2843 87.3073 65.9695 88.5407 63.8309L93.1746 67.2044C92.085 69.0994 91.2142 71.121 90.5803 73.23L85.754 70.7044ZM103.294 62.3746C101.859 63.4758 100.565 64.7403 99.4244 66.1198L104.188 69.591C105.249 68.2839 106.449 67.0805 107.763 66.0066L103.294 62.3746ZM96.8669 69.8921C95.9241 71.6153 95.1889 73.4587 94.6918 75.381L99.7026 78.0088C100.196 76.4006 100.849 74.8494 101.649 73.3824L96.8674 69.8922L96.8669 69.8921ZM84.9978 75.4452C84.8492 77.6145 84.9644 79.8356 85.365 82.0699C86.7343 82.7559 88.119 83.4125 89.5179 84.0413C89.321 81.9476 89.3504 79.8773 89.6057 77.8523L84.9977 75.4449L84.9978 75.4452ZM93.9626 80.1396C93.865 82.0958 94.008 84.0998 94.414 86.1096C95.843 86.6703 97.2827 87.1957 98.7371 87.6967C98.5676 85.9924 98.5794 84.3028 98.7542 82.6489L93.9629 80.1398L93.9626 80.1396Z" fill="#E7E0BF"/>
<path d="M119.358 65.3445L119.369 65.3968C108.399 67.6414 101.355 78.2813 103.573 89.241C113.966 92.2877 124.911 93.8112 136.094 93.608C131.901 83.1923 126.222 73.7052 119.358 65.3445Z" fill="#8DB958"/>
</svg>
