<?xml-stylesheet type="text/css" href="../css/main.css"?>

<svg id="soundSvg" width="934" height="934" viewBox="0 0 934 934" fill="none" xmlns="http://www.w3.org/2000/svg">
<path d="M459.947 177.03L262.827 338.31L152.321 348.763C129.176 351.003 112.004 370.414 112.004 392.815V542.149C112.004 565.294 129.176 584.711 152.321 586.201L262.827 596.654L459.947 757.934C476.373 771.371 500.264 759.428 500.264 738.522V195.695C499.519 175.534 475.624 163.586 459.947 177.028V177.03Z" fill="black"/>
<path d="M645.866 287.537C640.637 280.818 630.184 279.323 623.465 285.297L596.585 309.193C590.611 314.423 589.866 323.381 595.09 330.1C624.954 367.433 642.877 415.22 642.877 466.74C642.877 518.26 624.956 566.047 595.09 603.38C589.861 609.354 590.611 619.063 596.585 624.287L623.465 648.183C630.184 654.157 639.892 653.412 645.866 645.943C685.44 596.662 709.336 533.943 709.336 465.996C709.336 398.048 686.19 336.819 645.866 287.543V287.537Z" fill="black"/>
<path d="M728 211.379C722.771 204.66 712.317 204.66 706.349 209.884L679.469 234.524C673.495 239.754 672.75 249.456 677.974 255.431C725.761 312.926 754.136 386.843 754.136 466.738C754.136 546.632 725.761 620.551 677.974 678.044C672.745 684.763 673.495 693.727 679.469 698.951L706.349 723.591C712.323 729.565 722.776 728.82 728 722.096C786.24 652.659 821.333 563.803 821.333 465.99C821.333 368.172 786.24 280.816 728 211.376V211.379Z" fill="black"/>
</svg>
